<svg width="25" height="24" viewBox="0 0 25 24" fill="none" xmlns="http://www.w3.org/2000/svg">
<path d="M13.625 11.625V20.25C13.625 20.5484 13.5065 20.8345 13.2955 21.0455C13.0845 21.2565 12.7984 21.375 12.5 21.375C12.2016 21.375 11.9155 21.2565 11.7045 21.0455C11.4935 20.8345 11.375 20.5484 11.375 20.25V11.625C11.375 11.3266 11.4935 11.0405 11.7045 10.8295C11.9155 10.6185 12.2016 10.5 12.5 10.5C12.7984 10.5 13.0845 10.6185 13.2955 10.8295C13.5065 11.0405 13.625 11.3266 13.625 11.625ZM19.25 18C18.9516 18 18.6655 18.1185 18.4545 18.3295C18.2435 18.5405 18.125 18.8266 18.125 19.125V20.25C18.125 20.5484 18.2435 20.8345 18.4545 21.0455C18.6655 21.2565 18.9516 21.375 19.25 21.375C19.5484 21.375 19.8345 21.2565 20.0455 21.0455C20.2565 20.8345 20.375 20.5484 20.375 20.25V19.125C20.375 18.8266 20.2565 18.5405 20.0455 18.3295C19.8345 18.1185 19.5484 18 19.25 18ZM21.5 14.25H20.375V3.75C20.375 3.45163 20.2565 3.16548 20.0455 2.9545C19.8345 2.74353 19.5484 2.625 19.25 2.625C18.9516 2.625 18.6655 2.74353 18.4545 2.9545C18.2435 3.16548 18.125 3.45163 18.125 3.75V14.25H17C16.7016 14.25 16.4155 14.3685 16.2045 14.5795C15.9935 14.7905 15.875 15.0766 15.875 15.375C15.875 15.6734 15.9935 15.9595 16.2045 16.1705C16.4155 16.3815 16.7016 16.5 17 16.5H21.5C21.7984 16.5 22.0845 16.3815 22.2955 16.1705C22.5065 15.9595 22.625 15.6734 22.625 15.375C22.625 15.0766 22.5065 14.7905 22.2955 14.5795C22.0845 14.3685 21.7984 14.25 21.5 14.25ZM5.75 15C5.45163 15 5.16548 15.1185 4.9545 15.3295C4.74353 15.5405 4.625 15.8266 4.625 16.125V20.25C4.625 20.5484 4.74353 20.8345 4.9545 21.0455C5.16548 21.2565 5.45163 21.375 5.75 21.375C6.04837 21.375 6.33452 21.2565 6.5455 21.0455C6.75647 20.8345 6.875 20.5484 6.875 20.25V16.125C6.875 15.8266 6.75647 15.5405 6.5455 15.3295C6.33452 15.1185 6.04837 15 5.75 15ZM8 11.25H6.875V3.75C6.875 3.45163 6.75647 3.16548 6.5455 2.9545C6.33452 2.74353 6.04837 2.625 5.75 2.625C5.45163 2.625 5.16548 2.74353 4.9545 2.9545C4.74353 3.16548 4.625 3.45163 4.625 3.75V11.25H3.5C3.20163 11.25 2.91548 11.3685 2.7045 11.5795C2.49353 11.7905 2.375 12.0766 2.375 12.375C2.375 12.6734 2.49353 12.9595 2.7045 13.1705C2.91548 13.3815 3.20163 13.5 3.5 13.5H8C8.29837 13.5 8.58452 13.3815 8.7955 13.1705C9.00647 12.9595 9.125 12.6734 9.125 12.375C9.125 12.0766 9.00647 11.7905 8.7955 11.5795C8.58452 11.3685 8.29837 11.25 8 11.25ZM14.75 6.75H13.625V3.75C13.625 3.45163 13.5065 3.16548 13.2955 2.9545C13.0845 2.74353 12.7984 2.625 12.5 2.625C12.2016 2.625 11.9155 2.74353 11.7045 2.9545C11.4935 3.16548 11.375 3.45163 11.375 3.75V6.75H10.25C9.95163 6.75 9.66548 6.86853 9.4545 7.0795C9.24353 7.29048 9.125 7.57663 9.125 7.875C9.125 8.17337 9.24353 8.45952 9.4545 8.6705C9.66548 8.88147 9.95163 9 10.25 9H14.75C15.0484 9 15.3345 8.88147 15.5455 8.6705C15.7565 8.45952 15.875 8.17337 15.875 7.875C15.875 7.57663 15.7565 7.29048 15.5455 7.0795C15.3345 6.86853 15.0484 6.75 14.75 6.75Z" fill="black" fill-opacity="0.4"/>
</svg>
