<svg width="175" height="42" viewBox="0 0 175 42" fill="none" xmlns="http://www.w3.org/2000/svg">
<g filter="url(#filter0_d_22_361)">
<path fill-rule="evenodd" clip-rule="evenodd" d="M154.179 0.655656H170.482V3.25336C170.008 3.09436 169.512 3.0124 169.013 3.01061H159.642V15.1491H168.758C169.413 15.1491 169.996 15.0772 170.481 14.9548V17.5411C170.068 17.4443 169.499 17.3952 168.794 17.3952H159.642V29.9466H168.733C169.232 29.9466 169.826 29.874 170.481 29.7159V32.508H154.203C154.333 32.017 154.399 31.511 154.398 31.003V2.19691C154.398 1.56617 154.325 1.04435 154.179 0.655656ZM150.405 8.92219L145.695 8.88659C145.464 6.23976 143.947 3.67765 140.609 3.20567C133.459 2.56211 131.444 10.415 131.626 16.1572C131.809 21.6922 132.694 30.2015 140.075 30.2015C143.171 30.2015 146.144 27.0207 146.047 24.3383L150.405 24.3027C150.089 29.8377 143.741 33.0419 140.718 33.1516C130.389 33.5039 126.066 26.6206 125.848 16.7993C125.654 7.90346 129.296 0 139.504 0C148.244 0.121734 149.931 5.29294 150.405 8.92219ZM76.9408 28.8901L80.0611 26.2803C81.687 28.9635 83.0225 30.1886 86.2517 30.1886C89.5286 30.1886 92.285 28.1982 92.285 24.6786C92.285 22.9423 91.5802 21.522 90.1849 20.4542C89.5528 19.9559 87.951 19.0945 85.4259 17.8928C81.6507 16.0846 77.9731 13.7289 77.9731 8.99551C77.9731 3.02271 83.0467 0.388695 88.3995 0.193636C91.5681 0.0726133 95.5014 1.82174 97.091 3.78728L93.9231 6.22695C93.3581 5.17255 92.5181 4.29083 91.4923 3.6754C90.4665 3.05998 89.2932 2.73381 88.0969 2.73154C84.0541 2.73154 80.8498 7.41724 84.2 10.6464C85.0493 11.4715 86.7863 12.4909 89.4324 13.7047C93.6561 15.6838 97.2612 18.0501 97.2612 23.2825C97.2612 25.0908 96.7878 26.7779 95.853 28.3199C93.9722 31.4273 90.8278 32.9814 86.4339 32.9814C81.3838 32.9814 80.3892 31.8281 76.9408 28.8901ZM32.4893 0.655656H48.7782V3.25336C48.3051 3.09442 47.8094 3.01246 47.3103 3.01061H37.9396V15.1491H47.0554C47.7111 15.1491 48.2941 15.0772 48.7789 14.9548V17.5411C48.366 17.4443 47.7958 17.3952 47.1046 17.3952H37.9396V29.9466H47.0312C47.5289 29.9466 48.124 29.874 48.7789 29.7159V32.508H32.5143C32.6332 32.0151 32.6941 31.5101 32.6958 31.003V2.19691C32.6958 1.56617 32.6225 1.04435 32.4893 0.655656ZM4 0.655656H9.92368V0.947533C9.92368 1.21449 10.0084 1.56617 10.1543 2.01538L18.5049 27.1545L27.0754 1.90574C27.2085 1.48145 27.2818 1.06856 27.2818 0.655656H30.1586C29.8674 1.16537 29.6489 1.61529 29.515 2.01538L19.7308 31.2095C19.6339 31.4886 19.5492 31.9257 19.4766 32.5087H14.6208C14.5474 32.0674 14.4379 31.6329 14.2933 31.2095L4.70406 2.24603C4.48255 1.71187 4.25163 1.18166 4.01139 0.655656H4ZM66.9145 17.262C70.7986 16.4968 73.7729 13.5232 73.7729 9.27457C73.7729 3.70186 69.1114 0.654944 63.8918 0.654944H54.3509C54.4841 1.14117 54.5574 1.65089 54.5574 2.18481V30.9774C54.5574 31.5968 54.4841 32.1186 54.3509 32.5073H60.0319C59.8929 32.0093 59.8235 31.4944 59.8254 30.9774V17.7476L61.6457 17.9419L71.1631 32.5073H76.8803L66.9145 17.262ZM65.9314 14.8345C64.8998 15.562 63.6611 15.9258 62.2409 15.9258H59.8133V2.97572H61.986C63.8441 2.97572 65.2878 3.43632 66.32 4.35822C67.7282 5.63394 68.4443 7.35744 68.4443 9.51804C68.4443 11.8488 67.6064 13.6214 65.9314 14.8352M124.901 31.1853L114.293 1.71211C114.175 1.37134 114.105 1.01572 114.086 0.655656H109.497C109.497 1.03225 109.436 1.43233 109.29 1.83313L99.0096 31.1853C98.875 31.6089 98.6572 32.0467 98.366 32.508H101.328C101.316 32.0225 101.377 31.5733 101.51 31.1853L104.556 22.5294H116.27L119.281 31.186C119.439 31.658 119.511 32.0951 119.511 32.508H125.654C125.301 32.0104 125.047 31.5612 124.901 31.1853ZM105.358 20.1865L110.31 5.80266L115.397 20.1865H105.358Z" fill="white"/>
</g>
<defs>
<filter id="filter0_d_22_361" x="0" y="0" width="174.482" height="41.1645" filterUnits="userSpaceOnUse" color-interpolation-filters="sRGB">
<feFlood flood-opacity="0" result="BackgroundImageFix"/>
<feColorMatrix in="SourceAlpha" type="matrix" values="0 0 0 0 0 0 0 0 0 0 0 0 0 0 0 0 0 0 127 0" result="hardAlpha"/>
<feOffset dy="4"/>
<feGaussianBlur stdDeviation="2"/>
<feComposite in2="hardAlpha" operator="out"/>
<feColorMatrix type="matrix" values="0 0 0 0 0 0 0 0 0 0 0 0 0 0 0 0 0 0 0.25 0"/>
<feBlend mode="normal" in2="BackgroundImageFix" result="effect1_dropShadow_22_361"/>
<feBlend mode="normal" in="SourceGraphic" in2="effect1_dropShadow_22_361" result="shape"/>
</filter>
</defs>
</svg>
